# xmcd
#
# Track frame offsets:
#	150
#	13405
#	25515
#	44369
#	61848
#	76203
#	91446
#	104272
#	115479
#	129206
#	146434
#	160847
#	179047
#
# Disc length: 2622 seconds
# Revision: 0
# Processed by: cddbd v1.5.2PL0 Copyright (c) Steve Scherf et al.
# Submitted via: dBpowerAMP V12.0
#
DISCID=a60a3c0d
DTITLE=Various Artist - Still Fighting the War
DYEAR=2013
DGENRE=Folk
TTITLE0=Slaid Cleaves feat. Jimmy LaFave - Still Fighting the War
TTITLE1=Slaid Cleaves - Without Her
TTITLE2=Slaid Cleaves - Rust Belt Fields
TTITLE3=Slaid Cleaves - Hometown USA
TTITLE4=Slaid Cleaves - Gone
TTITLE5=Slaid Cleaves - Welding Burns
TTITLE6=Slaid Cleaves - I Bet She Does
TTITLE7=Slaid Cleaves feat. Harmoni Kelley McCarty - Whim of Iron
TTITLE8=Slaid Cleaves feat. Terri Hendrix - Texas Love Song
TTITLE9=Slaid Cleaves - God's Own Yodeler
TTITLE10=Slaid Cleaves feat. Eliza Gilkyson - In the Rain
TTITLE11=Slaid Cleaves - Go For the Gold
TTITLE12=Slaid Cleaves - Voice of Midnight
EXTD=
EXTT0=
EXTT1=
EXTT2=
EXTT3=
EXTT4=
EXTT5=
EXTT6=
EXTT7=
EXTT8=
EXTT9=
EXTT10=
EXTT11=
EXTT12=
PLAYORDER=
